Coordinates
version=1
nRows=11
nColumns=40
inDegrees=yes

Units are S.I. units (second, meters, Newtons, ...)
If the header above contains a line with 'inDegrees', this indicates whether rotational values are in degrees (yes) or radians (no).

endheader
time	pelvis_tilt	pelvis_list	pelvis_rotation	pelvis_tx	pelvis_ty	pelvis_tz	hip_flexion_r	hip_adduction_r	hip_rotation_r	knee_angle_r	knee_angle_r_beta	ankle_angle_r	subtalar_angle_r	mtp_angle_r	hip_flexion_l	hip_adduction_l	hip_rotation_l	knee_angle_l	knee_angle_l_beta	ankle_angle_l	subtalar_angle_l	mtp_angle_l	lumbar_extension	lumbar_bending	lumbar_rotation	arm_flex_r	arm_add_r	arm_rot_r	elbow_flex_r	pro_sup_r	wrist_flex_r	wrist_dev_r	arm_flex_l	arm_add_l	arm_rot_l	elbow_flex_l	pro_sup_l	wrist_flex_l	wrist_dev_l
      1.23000000	     -4.31514476	      7.34894341	      5.36201472	      0.95356982	      0.89197290	      0.20699779	     34.40256955	    -13.24861040	    -19.94218227	      8.28023392	      0.14451734	      2.17878215	     11.54985806	      0.00000000	    -14.49396980	      5.18769795	    -17.21202239	     10.52342156	      0.18366835	     12.54252436	     17.52043172	      0.00000000	      1.90524827	     -4.61593438	      0.91060533	     44.15211160	    -15.53013610	     44.15211160	     75.14437426	     44.99823717	      0.00000000	      0.00000000	     44.15211160	    -15.53013610	     44.15211160	     75.14437426	     44.99823717	      0.00000000	      0.00000000
      1.23500000	     -4.22677995	      7.30378220	      5.40578179	      0.96102559	      0.89146541	      0.20751168	     34.24715226	    -13.17333226	    -19.60223611	      8.56123655	      0.14942177	      2.07604245	     11.39790853	      0.00000000	    -14.91128908	      4.96205907	    -17.08974930	     10.82476324	      0.18892776	     12.22464458	     17.49640633	      0.00000000	      1.86263804	     -4.46408506	      0.83065323	     44.15235892	    -15.52988053	     44.15235892	     75.14423807	     44.99824179	      0.00000000	      0.00000000	     44.15235892	    -15.52988053	     44.15235892	     75.14423807	     44.99824179	      0.00000000	      0.00000000
      1.24000000	     -3.99621770	      6.99726203	      5.50353751	      0.96850459	      0.89142683	      0.20784311	     33.78357375	    -12.78367857	    -19.20841530	      8.67660452	      0.15143532	      1.60503399	      9.86196964	      0.00000000	    -15.30091416	      4.36562178	    -17.29754611	     11.43075388	      0.19950429	     11.65551772	     17.30430310	      0.00000000	      1.56320024	     -4.00188574	      0.58009920	     44.15616152	    -15.52595620	     44.15616152	     75.14215394	     44.99831161	      0.00000000	      0.00000000	     44.15616152	    -15.52595620	     44.15616152	     75.14215394	     44.99831161	      0.00000000	      0.00000000
      1.24500000	     -3.82361193	      6.87809148	      5.52706480	      0.97610200	      0.89125123	      0.20841903	     33.51965706	    -12.62818786	    -18.89700189	      9.11125831	      0.15902146	      1.36363540	      9.32670157	      0.00000000	    -15.73970316	      4.03303680	    -17.28025849	     11.82090131	      0.20631365	     11.01186807	     17.16131062	      0.00000000	      1.37553123	     -3.77376896	      0.45274182	     44.15721391	    -15.52487232	     44.15721391	     75.14158112	     44.99833046	      0.00000000	      0.00000000	     44.15721391	    -15.52487232	     44.15721391	     75.14158112	     44.99833046	      0.00000000	      0.00000000
      1.25000000	     -3.64668694	      6.67375068	      5.57533683	      0.98373971	      0.89114187	      0.20891351	     33.21257295	    -12.39105387	    -18.58607487	      9.55450499	      0.16675757	      0.99025124	      8.47339319	      0.00000000	    -16.15760119	      3.60985009	    -17.20391699	     12.23706178	      0.21357702	     10.40073588	     16.88950778	      0.00000000	      1.20368863	     -3.43673516	      0.26124371	     44.15870564	    -15.52333740	     44.15870564	     75.14077181	     44.99835687	      0.00000000	      0.00000000	     44.15870564	    -15.52333740	     44.15870564	     75.14077181	     44.99835687	      0.00000000	      0.00000000
      1.25500000	     -3.42358493	      6.50007760	      5.58102220	      0.99148832	      0.89119207	      0.20954841	     32.85623923	    -12.16966733	    -18.29847003	     10.05160427	      0.17543359	      0.59300834	      7.75898184	      0.00000000	    -16.61107418	      3.21846296	    -17.16553617	     12.68213456	      0.22134500	      9.67019793	     16.58666265	      0.00000000	      0.97822311	     -3.15564679	      0.09434999	     44.15972024	    -15.52229448	     44.15972024	     75.14022325	     44.99837462	      0.00000000	      0.00000000	     44.15972024	    -15.52229448	     44.15972024	     75.14022325	     44.99837462	      0.00000000	      0.00000000
      1.26000000	     -3.19167032	      6.24082107	      5.60941238	      0.99928217	      0.89135862	      0.21010888	     32.46364439	    -11.87168199	    -18.09702241	     10.56150549	      0.18433304	      0.07182119	      6.79866971	      0.00000000	    -17.04099133	      2.73098918	    -17.12735468	     13.15373158	      0.22957592	      8.83582824	     16.13011778	      0.00000000	      0.76681883	     -2.77880148	     -0.12889872	     44.16097893	    -15.52100177	     44.16097893	     75.13954473	     44.99839640	      0.00000000	      0.00000000	     44.16097893	    -15.52100177	     44.16097893	     75.13954473	     44.99839640	      0.00000000	      0.00000000
      1.26500000	     -2.94896256	      5.96060539	      5.62301653	      1.00714559	      0.89161108	      0.21069522	     32.01526836	    -11.53396481	    -17.80581212	     11.00671250	      0.19210337	     -0.53102917	      5.92838811	      0.00000000	    -17.47836453	      2.24097341	    -17.00579771	     13.62446107	      0.23779170	      8.03166372	     15.64242223	      0.00000000	      0.54211571	     -2.35985161	     -0.38572816	     44.16246168	    -15.51948058	     44.16246168	     75.13874836	     44.99842172	      0.00000000	      0.00000000	     44.16246168	    -15.51948058	     44.16246168	     75.13874836	     44.99842172	      0.00000000	      0.00000000
      1.27000000	     -2.74235220	      5.79425101	      5.55378243	      1.01507530	      0.89181258	      0.21154653	     31.64859721	    -11.28966854	    -17.44708086	     11.52635376	      0.20117282	     -0.92930686	      5.61990982	      0.00000000	    -17.89343861	      1.89554558	    -16.83415779	     14.07444376	      0.24564538	      7.33435112	     15.40996081	      0.00000000	      0.38701906	     -2.11322484	     -0.53438401	     44.16288947	    -15.51904205	     44.16288947	     75.13851922	     44.99842896	      0.00000000	      0.00000000	     44.16288947	    -15.51904205	     44.16288947	     75.13851922	     44.99842896	      0.00000000	      0.00000000
      1.27500000	     -2.34100659	      5.25519830	      5.63265679	      1.02306350	      0.89269575	      0.21188776	     30.89794585	    -10.69383492	    -17.49454736	     11.80293062	      0.20600000	     -1.97504253	      4.12811080	      0.00000000	    -18.38445126	      1.11971248	    -16.71628144	     14.67006028	      0.25604085	      6.13297207	     14.27290740	      0.00000000	      0.00711279	     -1.38289672	     -1.02298928	     44.16615976	    -15.51569437	     44.16615976	     75.13677607	     44.99848331	      0.00000000	      0.00000000	     44.16615976	    -15.51569437	     44.16615976	     75.13677607	     44.99848331	      0.00000000	      0.00000000
      1.28000000	     -2.05096746	      4.98875994	      5.52958059	      1.03112461	      0.89332375	      0.21282683	     30.47327654	    -10.35973228	    -17.41832140	     12.44413570	      0.21719114	     -2.51701469	      3.61672742	      0.00000000	    -18.77351241	      0.63839520	    -16.81932920	     15.26160440	      0.26636525	      4.85953415	     13.70994762	      0.00000000	     -0.22831188	     -1.04923550	     -1.23425745	     44.16714747	    -15.51468497	     44.16714747	     75.13625258	     44.99849940	      0.00000000	      0.00000000	     44.16714747	    -15.51468497	     44.16714747	     75.13625258	     44.99849940	      0.00000000	      0.00000000
